<?xml version="1.0" standalone="no"?>
<!DOCTYPE svg PUBLIC "-//W3C//DTD SVG 20010904//EN"
 "http://www.w3.org/TR/2001/REC-SVG-20010904/DTD/svg10.dtd">
<svg version="1.0" xmlns="http://www.w3.org/2000/svg"
 width="273.000000pt" height="228.000000pt" viewBox="0 0 273.000000 228.000000"
 preserveAspectRatio="xMidYMid meet">

<g transform="translate(0.000000,228.000000) scale(0.100000,-0.100000)"
fill="#000000" stroke="none">
<path d="M841 2101 c2 -39 6 -48 17 -43 11 4 13 1 7 -8 -5 -8 -4 -11 2 -7 6 4
28 -7 49 -23 22 -17 47 -36 57 -44 18 -14 18 -18 1 -120 -9 -58 -21 -106 -25
-106 -5 0 -23 28 -40 62 -17 34 -43 80 -57 103 -14 22 -27 49 -29 59 -2 10
-10 24 -18 30 -8 6 -13 20 -10 31 2 11 4 26 4 34 1 8 7 11 17 7 14 -5 15 -4 4
9 -19 23 -26 18 -37 -27 -6 -24 -38 -139 -73 -257 -62 -215 -64 -230 -26 -231
9 0 125 -52 251 -111 22 -10 33 -19 23 -19 -9 0 -25 -12 -35 -26 -16 -22 -33
-30 -67 -33 -6 -1 -1 -8 10 -16 18 -14 18 -14 -9 -15 -15 0 -49 11 -75 24 -26
13 -58 26 -72 30 -25 7 116 -64 217 -109 l51 -23 39 34 c51 46 123 81 211 101
l72 17 0 71 c0 40 -2 74 -6 77 -8 9 -133 -22 -198 -49 -32 -13 -61 -22 -64
-19 -3 3 -1 6 4 6 6 0 19 7 30 16 19 15 19 15 -1 11 -15 -3 -21 1 -22 16 -1
10 -9 27 -17 36 -9 10 -16 24 -16 33 0 8 -11 32 -25 52 -24 36 -24 36 -5 48
17 11 20 24 20 80 0 38 4 68 8 68 5 0 17 -7 28 -15 16 -12 84 -14 426 -15
l408 0 5 23 c32 140 32 160 3 232 l-23 55 -508 0 -508 0 2 -49z"/>
<path d="M1257 1783 c21 -4 22 -11 26 -96 l3 -92 2 98 2 97 -27 -1 c-24 -2
-24 -2 -6 -6z"/>
<path d="M1168 1773 c6 -2 18 -2 25 0 6 3 1 5 -13 5 -14 0 -19 -2 -12 -5z"/>
<path d="M1020 1740 c-18 -12 -2 -12 25 0 13 6 15 9 5 9 -8 0 -22 -4 -30 -9z"/>
<path d="M1663 1722 c27 -10 45 -21 40 -26 -4 -5 -3 -7 2 -4 6 4 26 -3 45 -14
32 -18 25 -18 -17 -1 -15 6 -16 5 -3 -9 8 -9 17 -16 20 -16 21 1 30 -3 25 -12
-3 -5 3 -18 15 -30 19 -19 50 -89 52 -117 1 -7 5 -13 9 -13 4 0 11 -21 14 -47
14 -113 17 -122 33 -126 9 -3 -19 -5 -64 -6 -78 -1 -81 0 -95 27 -67 132 -179
209 -341 237 l-38 6 0 -75 c0 -74 0 -76 28 -82 80 -18 112 -29 167 -56 73 -36
127 -86 167 -155 16 -29 31 -53 32 -53 2 0 2 10 2 23 -1 19 5 23 49 29 28 3
119 7 203 7 l152 1 0 41 c0 76 -97 229 -200 315 -86 71 -241 154 -315 168 -17
4 -9 -2 18 -12z"/>
<path d="M652 1510 c0 -19 2 -27 5 -17 2 9 2 25 0 35 -3 9 -5 1 -5 -18z"/>
<path d="M650 1426 c0 -2 7 -7 16 -10 8 -3 12 -2 9 4 -6 10 -25 14 -25 6z"/>
<path d="M717 1243 c-4 -3 -7 -26 -7 -50 l0 -43 -80 0 -80 0 0 45 c0 25 -4 45
-10 45 -6 0 -10 -45 -10 -116 0 -74 4 -113 10 -109 6 3 10 28 10 56 l0 49 80
0 80 0 0 -55 c0 -30 5 -55 10 -55 6 0 10 47 10 120 0 66 -1 120 -3 120 -2 0
-7 -3 -10 -7z"/>
<path d="M1444 1234 c-84 -41 -85 -168 0 -208 42 -20 76 -20 122 -1 33 14 35
17 32 57 l-3 43 -52 0 c-64 0 -76 -19 -15 -23 40 -3 43 -5 40 -30 -7 -60 -126
-44 -157 22 -28 59 23 130 94 130 19 0 42 -8 53 -17 21 -19 42 -22 42 -7 0 17
-63 50 -95 50 -16 0 -44 -7 -61 -16z"/>
<path d="M310 1230 c0 -5 18 -10 40 -10 l40 0 0 -105 c0 -63 4 -105 10 -105 6
0 10 42 10 105 l0 105 45 0 c25 0 45 5 45 10 0 6 -38 10 -95 10 -57 0 -95 -4
-95 -10z"/>
<path d="M780 1127 l0 -114 80 1 c59 0 80 3 80 13 0 9 -19 13 -70 13 l-70 0 0
40 0 40 55 0 c42 0 55 3 55 15 0 12 -13 15 -55 15 l-55 0 0 35 0 35 70 0 c40
0 70 4 70 10 0 6 -33 10 -80 10 l-80 0 0 -113z"/>
<path d="M1080 1131 l0 -108 28 -6 c37 -7 127 6 145 21 25 21 26 50 5 78 -15
19 -18 28 -9 37 18 18 13 55 -11 71 -15 11 -45 16 -90 16 l-68 0 0 -109z m127
83 c28 -8 36 -30 17 -49 -10 -10 -34 -15 -68 -15 l-53 0 0 35 c0 34 1 35 41
35 23 0 51 -3 63 -6z m24 -104 c25 -14 25 -46 0 -60 -11 -5 -45 -10 -75 -10
l-56 0 2 40 1 40 54 0 c30 0 63 -5 74 -10z"/>
<path d="M1310 1131 c0 -88 3 -110 15 -115 13 -5 15 11 15 109 0 96 -3 115
-15 115 -12 0 -15 -19 -15 -109z"/>
<path d="M852 927 c-61 -39 -110 -73 -107 -75 3 -3 11 0 17 6 14 14 32 16 23
2 -3 -6 1 -7 9 -4 9 3 16 1 16 -5 0 -6 5 -11 11 -11 5 0 7 6 3 13 -5 6 3 4 16
-6 14 -9 32 -20 40 -23 15 -5 38 -15 113 -48 21 -9 45 -16 54 -16 9 0 24 -6
32 -14 9 -8 52 -26 96 -41 44 -15 88 -36 98 -47 16 -19 17 -17 17 80 l0 99
-57 12 c-78 15 -173 61 -225 109 l-43 39 -113 -70z"/>
<path d="M2159 908 c-1 -13 -1 -48 -1 -78 l0 -55 -12 34 c-9 26 -14 31 -19 19
-3 -9 -2 -18 3 -20 5 -2 12 -16 15 -33 l7 -30 -19 26 -18 27 -19 -26 c-11 -14
-14 -22 -8 -18 17 10 15 -5 -4 -32 -8 -12 -13 -26 -10 -30 2 -4 -5 -9 -17 -9
-17 -2 -19 0 -7 7 8 5 10 10 4 10 -18 0 -24 -12 -13 -26 6 -7 7 -19 3 -25 -5
-9 -9 -8 -14 5 -5 15 -9 14 -34 -10 l-28 -28 21 -17 c13 -11 17 -20 11 -24 -5
-3 -10 -11 -10 -17 0 -7 6 -6 15 2 12 10 15 9 15 -6 0 -13 3 -15 11 -7 9 9 8
16 -5 28 -9 9 -16 21 -16 26 0 6 -4 7 -10 4 -5 -3 -10 1 -10 10 0 9 4 14 9 11
15 -10 61 12 61 29 0 18 16 20 26 3 5 -7 3 -8 -6 -3 -10 6 -12 4 -7 -9 5 -13
-1 -21 -26 -31 -17 -8 -30 -15 -27 -15 3 -1 14 -3 25 -4 11 -2 26 -5 34 -7 10
-3 26 21 49 76 29 65 36 97 41 172 3 51 3 93 -1 93 -5 0 -9 -10 -9 -22z m-29
-158 c8 -15 4 -34 -16 -85 -14 -36 -30 -65 -35 -65 -5 0 -2 11 7 25 9 14 14
32 10 40 -3 9 -2 13 4 10 6 -3 10 -1 10 4 0 6 -7 11 -15 11 -8 0 -15 5 -15 10
0 6 4 10 9 10 5 0 12 14 16 30 8 35 11 37 25 10z"/>
<path d="M2110 720 c0 -11 2 -20 4 -20 2 0 6 9 9 20 3 11 1 20 -4 20 -5 0 -9
-9 -9 -20z"/>
<path d="M1880 550 c-101 -71 -275 -143 -420 -174 -36 -8 -57 -15 -47 -15 21
-1 23 -17 3 -24 -12 -5 -13 -13 -4 -44 5 -20 18 -43 27 -50 15 -12 15 -13 -1
-7 -10 3 -18 1 -18 -5 0 -6 -11 -11 -25 -11 -14 0 -25 -4 -25 -8 0 -16 165 14
280 50 106 34 281 130 265 146 -3 3 11 23 32 44 36 37 36 38 17 53 -10 8 -14
15 -9 15 6 0 3 5 -5 10 -12 8 -11 10 8 10 16 0 22 -5 20 -16 -2 -10 3 -19 11
-22 9 -3 11 0 7 7 -4 7 -2 10 5 9 6 -2 14 3 17 11 3 10 0 12 -11 8 -20 -7 -39
15 -31 37 3 9 1 16 -5 16 -6 0 -11 -7 -11 -15 0 -8 -4 -15 -10 -15 -5 0 -7 7
-4 15 9 22 -5 17 -66 -25z"/>
<path d="M2040 581 c0 -5 5 -11 12 -13 6 -2 -21 -39 -61 -81 -41 -42 -69 -77
-64 -77 8 0 96 88 138 138 16 20 17 25 5 32 -19 12 -30 12 -30 1z"/>
<path d="M817 439 c3 -45 1 -74 -6 -78 -17 -11 88 -69 182 -101 85 -29 227
-60 273 -60 23 0 24 2 24 84 l0 83 -92 17 c-121 22 -213 50 -305 92 -42 19
-77 34 -78 34 -2 0 -1 -32 2 -71z"/>
<path d="M1395 270 c3 -5 8 -10 11 -10 2 0 4 5 4 10 0 6 -5 10 -11 10 -5 0 -7
-4 -4 -10z"/>
</g>
</svg>
